<svg id="Livello_1" data-name="Livello 1" xmlns="http://www.w3.org/2000/svg" viewBox="0 0 1440 320"><defs><style>.cls-1{fill:#e5e5e5;}.cls-2{fill:#fff;}</style></defs><path class="cls-1" d="M0,128l531.4,35.43C474.27,194.92,417.13,224.37,360,234.7,240,256,120,192,60,160Z"/><path class="cls-1" d="M1440,0V224l-60-16c-60-16-180-48-300-85.3C960,85,840,43,720,74.7c-62.87,16.92-125.73,54.07-188.6,88.73L0,128V0Z"/><path class="cls-2" d="M1440,224v96H0V128l60,32c60,32,180,96,300,74.7,57.13-10.33,114.27-39.78,171.4-71.27Z"/><path class="cls-2" d="M1440,224,531.4,163.43C594.27,128.77,657.13,91.62,720,74.7,840,43,960,85,1080,122.7,1200,160,1320,192,1380,208Z"/></svg>